<svg xmlns="http://www.w3.org/2000/svg" xmlns:xlink="http://www.w3.org/1999/xlink" width="600" height="480" viewBox="0 0 600 480"><title>Gnuplot</title><desc>Produced by GNUPLOT 5.4 patchlevel 0</desc><g id="gnuplot_canvas"><rect width="600" height="480" x="0" y="0" fill="#fff"/><defs><circle id="gpDot" r=".5" stroke="currentColor" stroke-width=".5"/><path id="gpPt0" stroke="currentColor" stroke-width=".222" d="M-1,0 h2 M0,-1 v2"/><path id="gpPt1" stroke="currentColor" stroke-width=".222" d="M-1,-1 L1,1 M1,-1 L-1,1"/><path id="gpPt2" stroke="currentColor" stroke-width=".222" d="M-1,0 L1,0 M0,-1 L0,1 M-1,-1 L1,1 M-1,1 L1,-1"/><rect id="gpPt3" width="2" height="2" x="-1" y="-1" stroke="currentColor" stroke-width=".222"/><rect id="gpPt4" width="2" height="2" x="-1" y="-1" fill="currentColor" stroke="currentColor" stroke-width=".222"/><circle id="gpPt5" cx="0" cy="0" r="1" stroke="currentColor" stroke-width=".222"/><use id="gpPt6" fill="currentColor" stroke="none" xlink:href="#gpPt5"/><path id="gpPt7" stroke="currentColor" stroke-width=".222" d="M0,-1.33 L-1.33,0.67 L1.33,0.67 z"/><use id="gpPt8" fill="currentColor" stroke="none" xlink:href="#gpPt7"/><use id="gpPt9" stroke="currentColor" transform="rotate(180)" xlink:href="#gpPt7"/><use id="gpPt10" fill="currentColor" stroke="none" xlink:href="#gpPt9"/><use id="gpPt11" stroke="currentColor" transform="rotate(45)" xlink:href="#gpPt3"/><use id="gpPt12" fill="currentColor" stroke="none" xlink:href="#gpPt11"/><path id="gpPt13" stroke="currentColor" stroke-width=".222" d="M0,1.330 L1.265,0.411 L0.782,-1.067 L-0.782,-1.076 L-1.265,0.411 z"/><use id="gpPt14" fill="currentColor" stroke="none" xlink:href="#gpPt13"/><filter id="textbox" width="1" height="1" x="0" y="0" filterUnits="objectBoundingBox"><feFlood flood-color="#FFF" flood-opacity="1" result="bgnd"/><feComposite in="SourceGraphic" in2="bgnd" operator="atop"/></filter><filter id="greybox" width="1" height="1" x="0" y="0" filterUnits="objectBoundingBox"><feFlood flood-color="#d3d3d3" flood-opacity="1" result="grey"/><feComposite in="SourceGraphic" in2="grey" operator="atop"/></filter></defs><g fill="none" stroke="currentColor" stroke-linecap="butt" stroke-linejoin="miter" stroke-width=".5" color="gray"><path stroke="gray" stroke-dasharray="2 4" d="M80.2,422.4 L575.0,422.4" class="gridline"/></g><g fill="none" stroke="currentColor" stroke-linecap="butt" stroke-linejoin="miter" stroke-width="1" color="#000"><path stroke="#000" d="M80.2,422.4 L89.2,422.4 M575.0,422.4 L566.0,422.4"/><g fill="#000" stroke="none" font-family="Arial" font-size="12" text-anchor="end"><text transform="translate(71.9,426.3)"><tspan font-family="Arial">0</tspan></text></g></g><g fill="none" stroke="currentColor" stroke-linecap="butt" stroke-linejoin="miter" stroke-width=".5" color="gray"><path stroke="gray" stroke-dasharray="2 4" d="M80.2,364.6 L575.0,364.6" class="gridline"/></g><g fill="none" stroke="currentColor" stroke-linecap="butt" stroke-linejoin="miter" stroke-width="1" color="#000"><path stroke="#000" d="M80.2,364.6 L89.2,364.6 M575.0,364.6 L566.0,364.6"/><g fill="#000" stroke="none" font-family="Arial" font-size="12" text-anchor="end"><text transform="translate(71.9,368.5)"><tspan font-family="Arial">0.05</tspan></text></g></g><g fill="none" stroke="currentColor" stroke-linecap="butt" stroke-linejoin="miter" stroke-width=".5" color="gray"><path stroke="gray" stroke-dasharray="2 4" d="M80.2,306.9 L575.0,306.9" class="gridline"/></g><g fill="none" stroke="currentColor" stroke-linecap="butt" stroke-linejoin="miter" stroke-width="1" color="#000"><path stroke="#000" d="M80.2,306.9 L89.2,306.9 M575.0,306.9 L566.0,306.9"/><g fill="#000" stroke="none" font-family="Arial" font-size="12" text-anchor="end"><text transform="translate(71.9,310.8)"><tspan font-family="Arial">0.1</tspan></text></g></g><g fill="none" stroke="currentColor" stroke-linecap="butt" stroke-linejoin="miter" stroke-width=".5" color="gray"><path stroke="gray" stroke-dasharray="2 4" d="M80.2,249.1 L575.0,249.1" class="gridline"/></g><g fill="none" stroke="currentColor" stroke-linecap="butt" stroke-linejoin="miter" stroke-width="1" color="#000"><path stroke="#000" d="M80.2,249.1 L89.2,249.1 M575.0,249.1 L566.0,249.1"/><g fill="#000" stroke="none" font-family="Arial" font-size="12" text-anchor="end"><text transform="translate(71.9,253.0)"><tspan font-family="Arial">0.15</tspan></text></g></g><g fill="none" stroke="currentColor" stroke-linecap="butt" stroke-linejoin="miter" stroke-width=".5" color="gray"><path stroke="gray" stroke-dasharray="2 4" d="M80.2,191.4 L575.0,191.4" class="gridline"/></g><g fill="none" stroke="currentColor" stroke-linecap="butt" stroke-linejoin="miter" stroke-width="1" color="#000"><path stroke="#000" d="M80.2,191.4 L89.2,191.4 M575.0,191.4 L566.0,191.4"/><g fill="#000" stroke="none" font-family="Arial" font-size="12" text-anchor="end"><text transform="translate(71.9,195.3)"><tspan font-family="Arial">0.2</tspan></text></g></g><g fill="none" stroke="currentColor" stroke-linecap="butt" stroke-linejoin="miter" stroke-width=".5" color="gray"><path stroke="gray" stroke-dasharray="2 4" d="M80.2,133.6 L575.0,133.6" class="gridline"/></g><g fill="none" stroke="currentColor" stroke-linecap="butt" stroke-linejoin="miter" stroke-width="1" color="#000"><path stroke="#000" d="M80.2,133.6 L89.2,133.6 M575.0,133.6 L566.0,133.6"/><g fill="#000" stroke="none" font-family="Arial" font-size="12" text-anchor="end"><text transform="translate(71.9,137.5)"><tspan font-family="Arial">0.25</tspan></text></g></g><g fill="none" stroke="currentColor" stroke-linecap="butt" stroke-linejoin="miter" stroke-width=".5" color="gray"><path stroke="gray" stroke-dasharray="2 4" d="M80.2,75.9 L283.8,75.9 M566.7,75.9 L575.0,75.9" class="gridline"/></g><g fill="none" stroke="currentColor" stroke-linecap="butt" stroke-linejoin="miter" stroke-width="1" color="#000"><path stroke="#000" d="M80.2,75.9 L89.2,75.9 M575.0,75.9 L566.0,75.9"/><g fill="#000" stroke="none" font-family="Arial" font-size="12" text-anchor="end"><text transform="translate(71.9,79.8)"><tspan font-family="Arial">0.3</tspan></text></g></g><g fill="none" stroke="currentColor" stroke-linecap="butt" stroke-linejoin="miter" stroke-width=".5" color="gray"><path stroke="gray" stroke-dasharray="2 4" d="M80.2,18.1 L575.0,18.1" class="gridline"/></g><g fill="none" stroke="currentColor" stroke-linecap="butt" stroke-linejoin="miter" stroke-width="1" color="#000"><path stroke="#000" d="M80.2,18.1 L89.2,18.1 M575.0,18.1 L566.0,18.1"/><g fill="#000" stroke="none" font-family="Arial" font-size="12" text-anchor="end"><text transform="translate(71.9,22.0)"><tspan font-family="Arial">0.35</tspan></text></g></g><g fill="none" stroke="currentColor" stroke-linecap="butt" stroke-linejoin="miter" stroke-width=".5" color="gray"><path stroke="gray" stroke-dasharray="2 4" d="M80.2,422.4 L80.2,18.1" class="gridline"/></g><g fill="none" stroke="currentColor" stroke-linecap="butt" stroke-linejoin="miter" stroke-width="1" color="#000"><path stroke="#000" d="M80.2,422.4 L80.2,413.4 M80.2,18.1 L80.2,27.1"/><g fill="#000" stroke="none" font-family="Arial" font-size="12" text-anchor="middle"><text transform="translate(80.2,444.3)"><tspan font-family="Arial">0</tspan></text></g></g><g fill="none" stroke="currentColor" stroke-linecap="butt" stroke-linejoin="miter" stroke-width=".5" color="gray"><path stroke="gray" stroke-dasharray="2 4" d="M179.2,422.4 L179.2,18.1" class="gridline"/></g><g fill="none" stroke="currentColor" stroke-linecap="butt" stroke-linejoin="miter" stroke-width="1" color="#000"><path stroke="#000" d="M179.2,422.4 L179.2,413.4 M179.2,18.1 L179.2,27.1"/><g fill="#000" stroke="none" font-family="Arial" font-size="12" text-anchor="middle"><text transform="translate(179.2,444.3)"><tspan font-family="Arial">5000</tspan></text></g></g><g fill="none" stroke="currentColor" stroke-linecap="butt" stroke-linejoin="miter" stroke-width=".5" color="gray"><path stroke="gray" stroke-dasharray="2 4" d="M278.1,422.4 L278.1,18.1" class="gridline"/></g><g fill="none" stroke="currentColor" stroke-linecap="butt" stroke-linejoin="miter" stroke-width="1" color="#000"><path stroke="#000" d="M278.1,422.4 L278.1,413.4 M278.1,18.1 L278.1,27.1"/><g fill="#000" stroke="none" font-family="Arial" font-size="12" text-anchor="middle"><text transform="translate(278.1,444.3)"><tspan font-family="Arial">10000</tspan></text></g></g><g fill="none" stroke="currentColor" stroke-linecap="butt" stroke-linejoin="miter" stroke-width=".5" color="gray"><path stroke="gray" stroke-dasharray="2 4" d="M377.1,422.4 L377.1,81.1 M377.1,27.1 L377.1,18.1" class="gridline"/></g><g fill="none" stroke="currentColor" stroke-linecap="butt" stroke-linejoin="miter" stroke-width="1" color="#000"><path stroke="#000" d="M377.1,422.4 L377.1,413.4 M377.1,18.1 L377.1,27.1"/><g fill="#000" stroke="none" font-family="Arial" font-size="12" text-anchor="middle"><text transform="translate(377.1,444.3)"><tspan font-family="Arial">15000</tspan></text></g></g><g fill="none" stroke="currentColor" stroke-linecap="butt" stroke-linejoin="miter" stroke-width=".5" color="gray"><path stroke="gray" stroke-dasharray="2 4" d="M476.0,422.4 L476.0,81.1 M476.0,27.1 L476.0,18.1" class="gridline"/></g><g fill="none" stroke="currentColor" stroke-linecap="butt" stroke-linejoin="miter" stroke-width="1" color="#000"><path stroke="#000" d="M476.0,422.4 L476.0,413.4 M476.0,18.1 L476.0,27.1"/><g fill="#000" stroke="none" font-family="Arial" font-size="12" text-anchor="middle"><text transform="translate(476.0,444.3)"><tspan font-family="Arial">20000</tspan></text></g></g><g fill="none" stroke="currentColor" stroke-linecap="butt" stroke-linejoin="miter" stroke-width=".5" color="gray"><path stroke="gray" stroke-dasharray="2 4" d="M575.0,422.4 L575.0,18.1" class="gridline"/></g><g fill="none" stroke="currentColor" stroke-linecap="butt" stroke-linejoin="miter" stroke-width="1" color="#000"><path stroke="#000" d="M575.0,422.4 L575.0,413.4 M575.0,18.1 L575.0,27.1"/><g fill="#000" stroke="none" font-family="Arial" font-size="12" text-anchor="middle"><text transform="translate(575.0,444.3)"><tspan font-family="Arial">25000</tspan></text></g></g><g fill="none" stroke="currentColor" stroke-linecap="butt" stroke-linejoin="miter" stroke-width="1" color="#000"><path stroke="#000" d="M80.2,18.1 L80.2,422.4 L575.0,422.4 L575.0,18.1 L80.2,18.1 Z"/></g><g fill="none" stroke="currentColor" stroke-linecap="butt" stroke-linejoin="miter" stroke-width="1" color="#000"><g fill="#000" stroke="none" font-family="Arial" font-size="12" text-anchor="middle"><text transform="translate(19.0,220.3) rotate(270)"><tspan font-family="Arial">Secs (less is better)</tspan></text></g></g><g fill="none" stroke="currentColor" stroke-linecap="butt" stroke-linejoin="miter" stroke-width="1" color="#000"><g fill="#000" stroke="none" font-family="Arial" font-size="12" text-anchor="middle"><text transform="translate(327.6,471.3)"><tspan font-family="Arial">Items</tspan></text></g></g><g id="gnuplot_plot_1"><title>&apos;quick_m.txt&apos; using 1:2</title><g fill="none" stroke="currentColor" stroke-linecap="butt" stroke-linejoin="miter" stroke-width="1" color="#000"><g fill="#000" stroke="none" font-family="Arial" font-size="12" text-anchor="end"><text transform="translate(507.9,40.0)">&apos;quick_m.txt&apos; using 1:2</text></g></g><g fill="none" stroke="currentColor" stroke-linecap="butt" stroke-linejoin="miter" stroke-width="1" color="#000"><path stroke="#9400D3" d="M516.2,36.1 L558.4,36.1 M82.2,422.4 L87.2,422.4 L92.1,422.3 L97.1,422.3 L102.1,422.3 L107.1,422.2 L112.0,422.2 L117.0,422.2 L122.0,422.2 L127.0,422.2 L132.0,422.1 L136.9,422.1 L141.9,422.1 L146.9,422.0 L151.9,422.0 L156.8,422.0 L161.8,422.0 L166.8,421.9 L171.8,421.9 L176.8,421.9 L181.7,421.9 L186.7,421.8 L191.7,421.8 L196.7,421.8 L201.7,421.8 L206.6,421.7 L211.6,421.7 L216.6,421.7 L221.6,421.7 L226.5,421.6 L231.5,421.6 L236.5,421.6 L241.5,421.5 L246.5,421.5 L251.4,421.5 L256.4,421.5 L261.4,421.4 L266.4,421.4 L271.3,421.4 L276.3,421.4 L281.3,421.3 L286.3,421.3 L291.3,421.3 L296.2,421.3 L301.2,421.2 L306.2,421.2 L311.2,421.2 L316.1,421.2 L321.1,421.1 L326.1,421.1 L331.1,421.1 L336.1,421.1 L341.0,421.1 L346.0,421.0 L351.0,421.0 L356.0,421.0 L360.9,420.9 L365.9,420.9 L370.9,420.9 L375.9,420.8 L380.9,420.8 L385.8,420.8 L390.8,420.8 L395.8,420.7 L400.8,420.7 L405.7,420.6 L410.7,420.6 L415.7,420.5 L420.7,420.5 L425.7,420.4 L430.6,420.3 L435.6,420.3 L440.6,420.2 L445.6,420.1 L450.6,420.1 L455.5,420.0 L460.5,420.0 L465.5,419.9 L470.5,419.9 L475.4,419.9 L480.4,419.8 L485.4,419.8 L490.4,419.8 L495.4,419.8 L500.3,419.7 L505.3,419.7 L510.3,419.7 L515.3,419.7 L520.2,419.7 L525.2,419.7 L530.2,419.8 L535.2,419.9 L540.2,420.0 L545.1,420.0 L550.1,420.0 L555.1,419.9 L560.1,419.9 L565.0,419.9 L570.0,419.8 L575.0,419.8"/></g></g><g id="gnuplot_plot_2"><title>&apos;insertion_m.txt&apos; using 1:2</title><g fill="none" stroke="currentColor" stroke-linecap="butt" stroke-linejoin="miter" stroke-width="1" color="#000"><g fill="#000" stroke="none" font-family="Arial" font-size="12" text-anchor="end"><text transform="translate(507.9,58.0)">&apos;insertion_m.txt&apos; using 1:2</text></g></g><g fill="none" stroke="currentColor" stroke-linecap="butt" stroke-linejoin="miter" stroke-width="1" color="#000"><path stroke="#009E73" d="M516.2,54.1 L558.4,54.1 M82.2,422.4 L87.2,422.3 L92.1,422.1 L97.1,421.8 L102.1,421.5 L107.1,421.1 L112.0,420.7 L117.0,420.3 L122.0,419.8 L127.0,419.2 L132.0,418.5 L136.9,417.7 L141.9,416.9 L146.9,416.0 L151.9,415.0 L156.8,414.0 L161.8,412.8 L166.8,411.5 L171.8,410.1 L176.8,408.6 L181.7,406.9 L186.7,405.2 L191.7,403.4 L196.7,401.8 L201.7,400.2 L206.6,398.7 L211.6,397.1 L216.6,395.5 L221.6,393.7 L226.5,391.8 L231.5,389.7 L236.5,387.4 L241.5,384.8 L246.5,382.0 L251.4,379.1 L256.4,376.2 L261.4,373.4 L266.4,370.8 L271.3,368.3 L276.3,365.9 L281.3,363.5 L286.3,361.1 L291.3,358.6 L296.2,356.0 L301.2,353.2 L306.2,350.3 L311.2,347.3 L316.1,344.2 L321.1,341.0 L326.1,337.6 L331.1,334.0 L336.1,330.3 L341.0,326.3 L346.0,322.1 L351.0,317.8 L356.0,313.6 L360.9,309.5 L365.9,305.6 L370.9,301.8 L375.9,298.2 L380.9,294.4 L385.8,290.5 L390.8,286.2 L395.8,281.6 L400.8,276.7 L405.7,271.6 L410.7,266.6 L415.7,261.8 L420.7,257.2 L425.7,252.8 L430.6,248.5 L435.6,243.9 L440.6,239.0 L445.6,233.6 L450.6,228.0 L455.5,222.3 L460.5,216.6 L465.5,211.0 L470.5,205.2 L475.4,199.1 L480.4,192.6 L485.4,186.0 L490.4,179.5 L495.4,173.7 L500.3,168.4 L505.3,163.5 L510.3,158.5 L515.3,153.0 L520.2,147.3 L525.2,141.9 L530.2,136.8 L535.2,131.2 L540.2,124.3 L545.1,116.6 L550.1,110.3 L555.1,106.2 L560.1,101.5 L565.0,92.5 L570.0,78.1 L575.0,78.2"/></g></g><g id="gnuplot_plot_3"><title>&apos;merge_m.txt&apos; using 1:2</title><g fill="none" stroke="currentColor" stroke-linecap="butt" stroke-linejoin="miter" stroke-width="1" color="#000"><g fill="#000" stroke="none" font-family="Arial" font-size="12" text-anchor="end"><text transform="translate(507.9,76.0)">&apos;merge_m.txt&apos; using 1:2</text></g></g><g fill="none" stroke="currentColor" stroke-linecap="butt" stroke-linejoin="miter" stroke-width="1" color="#000"><path stroke="#56B4E9" d="M516.2,72.1 L558.4,72.1 M82.2,422.4 L87.2,422.3 L92.1,422.2 L97.1,422.1 L102.1,422.0 L107.1,421.8 L112.0,421.7 L117.0,421.5 L122.0,421.4 L127.0,421.3 L132.0,421.2 L136.9,421.1 L141.9,421.0 L146.9,420.9 L151.9,420.8 L156.8,420.7 L161.8,420.6 L166.8,420.6 L171.8,420.6 L176.8,420.6 L181.7,420.6 L186.7,420.5 L191.7,420.5 L196.7,420.5 L201.7,420.4 L206.6,420.3 L211.6,420.2 L216.6,420.1 L221.6,420.1 L226.5,420.0 L231.5,419.9 L236.5,419.8 L241.5,419.7 L246.5,419.6 L251.4,419.5 L256.4,419.4 L261.4,419.3 L266.4,419.1 L271.3,419.0 L276.3,418.9 L281.3,418.7 L286.3,418.6 L291.3,418.4 L296.2,418.3 L301.2,418.2 L306.2,418.1 L311.2,418.0 L316.1,418.0 L321.1,417.9 L326.1,417.9 L331.1,417.8 L336.1,417.7 L341.0,417.6 L346.0,417.6 L351.0,417.5 L356.0,417.4 L360.9,417.3 L365.9,417.2 L370.9,417.1 L375.9,417.0 L380.9,416.8 L385.8,416.7 L390.8,416.6 L395.8,416.4 L400.8,416.2 L405.7,415.8 L410.7,415.5 L415.7,415.0 L420.7,414.4 L425.7,413.8 L430.6,413.2 L435.6,412.7 L440.6,412.3 L445.6,412.1 L450.6,412.0 L455.5,412.0 L460.5,412.3 L465.5,412.6 L470.5,413.1 L475.4,413.6 L480.4,413.9 L485.4,414.1 L490.4,414.1 L495.4,414.0 L500.3,413.9 L505.3,414.0 L510.3,414.1 L515.3,414.2 L520.2,414.3 L525.2,414.2 L530.2,414.2 L535.2,414.0 L540.2,413.9 L545.1,413.8 L550.1,413.8 L555.1,413.7 L560.1,413.6 L565.0,413.4 L570.0,412.9 L575.0,412.3"/></g></g><g fill="none" stroke="currentColor" stroke-linecap="butt" stroke-linejoin="miter" stroke-width="1" color="#000"><path stroke="#000" d="M80.2,18.1 L80.2,422.4 L575.0,422.4 L575.0,18.1 L80.2,18.1 Z"/></g></g></svg>