<svg xmlns="http://www.w3.org/2000/svg" xmlns:xlink="http://www.w3.org/1999/xlink" width="600" height="480" viewBox="0 0 600 480"><title>Gnuplot</title><desc>Produced by GNUPLOT 5.4 patchlevel 0</desc><g id="gnuplot_canvas"><rect width="600" height="480" x="0" y="0" fill="#fff"/><defs><circle id="gpDot" r=".5" stroke="currentColor" stroke-width=".5"/><path id="gpPt0" stroke="currentColor" stroke-width=".222" d="M-1,0 h2 M0,-1 v2"/><path id="gpPt1" stroke="currentColor" stroke-width=".222" d="M-1,-1 L1,1 M1,-1 L-1,1"/><path id="gpPt2" stroke="currentColor" stroke-width=".222" d="M-1,0 L1,0 M0,-1 L0,1 M-1,-1 L1,1 M-1,1 L1,-1"/><rect id="gpPt3" width="2" height="2" x="-1" y="-1" stroke="currentColor" stroke-width=".222"/><rect id="gpPt4" width="2" height="2" x="-1" y="-1" fill="currentColor" stroke="currentColor" stroke-width=".222"/><circle id="gpPt5" cx="0" cy="0" r="1" stroke="currentColor" stroke-width=".222"/><use id="gpPt6" fill="currentColor" stroke="none" xlink:href="#gpPt5"/><path id="gpPt7" stroke="currentColor" stroke-width=".222" d="M0,-1.33 L-1.33,0.67 L1.33,0.67 z"/><use id="gpPt8" fill="currentColor" stroke="none" xlink:href="#gpPt7"/><use id="gpPt9" stroke="currentColor" transform="rotate(180)" xlink:href="#gpPt7"/><use id="gpPt10" fill="currentColor" stroke="none" xlink:href="#gpPt9"/><use id="gpPt11" stroke="currentColor" transform="rotate(45)" xlink:href="#gpPt3"/><use id="gpPt12" fill="currentColor" stroke="none" xlink:href="#gpPt11"/><path id="gpPt13" stroke="currentColor" stroke-width=".222" d="M0,1.330 L1.265,0.411 L0.782,-1.067 L-0.782,-1.076 L-1.265,0.411 z"/><use id="gpPt14" fill="currentColor" stroke="none" xlink:href="#gpPt13"/><filter id="textbox" width="1" height="1" x="0" y="0" filterUnits="objectBoundingBox"><feFlood flood-color="#FFF" flood-opacity="1" result="bgnd"/><feComposite in="SourceGraphic" in2="bgnd" operator="atop"/></filter><filter id="greybox" width="1" height="1" x="0" y="0" filterUnits="objectBoundingBox"><feFlood flood-color="#d3d3d3" flood-opacity="1" result="grey"/><feComposite in="SourceGraphic" in2="grey" operator="atop"/></filter></defs><g fill="none" stroke="currentColor" stroke-linecap="butt" stroke-linejoin="miter" stroke-width=".5" color="gray"><path stroke="gray" stroke-dasharray="2 4" d="M80.2,422.4 L575.0,422.4" class="gridline"/></g><g fill="none" stroke="currentColor" stroke-linecap="butt" stroke-linejoin="miter" stroke-width="1" color="#000"><path stroke="#000" d="M80.2,422.4 L89.2,422.4 M575.0,422.4 L566.0,422.4"/><g fill="#000" stroke="none" font-family="Arial" font-size="12" text-anchor="end"><text transform="translate(71.9,426.3)"><tspan font-family="Arial">0</tspan></text></g></g><g fill="none" stroke="currentColor" stroke-linecap="butt" stroke-linejoin="miter" stroke-width=".5" color="gray"><path stroke="gray" stroke-dasharray="2 4" d="M80.2,371.9 L575.0,371.9" class="gridline"/></g><g fill="none" stroke="currentColor" stroke-linecap="butt" stroke-linejoin="miter" stroke-width="1" color="#000"><path stroke="#000" d="M80.2,371.9 L89.2,371.9 M575.0,371.9 L566.0,371.9"/><g fill="#000" stroke="none" font-family="Arial" font-size="12" text-anchor="end"><text transform="translate(71.9,375.8)"><tspan font-family="Arial">0.05</tspan></text></g></g><g fill="none" stroke="currentColor" stroke-linecap="butt" stroke-linejoin="miter" stroke-width=".5" color="gray"><path stroke="gray" stroke-dasharray="2 4" d="M80.2,321.3 L575.0,321.3" class="gridline"/></g><g fill="none" stroke="currentColor" stroke-linecap="butt" stroke-linejoin="miter" stroke-width="1" color="#000"><path stroke="#000" d="M80.2,321.3 L89.2,321.3 M575.0,321.3 L566.0,321.3"/><g fill="#000" stroke="none" font-family="Arial" font-size="12" text-anchor="end"><text transform="translate(71.9,325.2)"><tspan font-family="Arial">0.1</tspan></text></g></g><g fill="none" stroke="currentColor" stroke-linecap="butt" stroke-linejoin="miter" stroke-width=".5" color="gray"><path stroke="gray" stroke-dasharray="2 4" d="M80.2,270.8 L575.0,270.8" class="gridline"/></g><g fill="none" stroke="currentColor" stroke-linecap="butt" stroke-linejoin="miter" stroke-width="1" color="#000"><path stroke="#000" d="M80.2,270.8 L89.2,270.8 M575.0,270.8 L566.0,270.8"/><g fill="#000" stroke="none" font-family="Arial" font-size="12" text-anchor="end"><text transform="translate(71.9,274.7)"><tspan font-family="Arial">0.15</tspan></text></g></g><g fill="none" stroke="currentColor" stroke-linecap="butt" stroke-linejoin="miter" stroke-width=".5" color="gray"><path stroke="gray" stroke-dasharray="2 4" d="M80.2,220.2 L575.0,220.2" class="gridline"/></g><g fill="none" stroke="currentColor" stroke-linecap="butt" stroke-linejoin="miter" stroke-width="1" color="#000"><path stroke="#000" d="M80.2,220.2 L89.2,220.2 M575.0,220.2 L566.0,220.2"/><g fill="#000" stroke="none" font-family="Arial" font-size="12" text-anchor="end"><text transform="translate(71.9,224.1)"><tspan font-family="Arial">0.2</tspan></text></g></g><g fill="none" stroke="currentColor" stroke-linecap="butt" stroke-linejoin="miter" stroke-width=".5" color="gray"><path stroke="gray" stroke-dasharray="2 4" d="M80.2,169.7 L575.0,169.7" class="gridline"/></g><g fill="none" stroke="currentColor" stroke-linecap="butt" stroke-linejoin="miter" stroke-width="1" color="#000"><path stroke="#000" d="M80.2,169.7 L89.2,169.7 M575.0,169.7 L566.0,169.7"/><g fill="#000" stroke="none" font-family="Arial" font-size="12" text-anchor="end"><text transform="translate(71.9,173.6)"><tspan font-family="Arial">0.25</tspan></text></g></g><g fill="none" stroke="currentColor" stroke-linecap="butt" stroke-linejoin="miter" stroke-width=".5" color="gray"><path stroke="gray" stroke-dasharray="2 4" d="M80.2,119.2 L575.0,119.2" class="gridline"/></g><g fill="none" stroke="currentColor" stroke-linecap="butt" stroke-linejoin="miter" stroke-width="1" color="#000"><path stroke="#000" d="M80.2,119.2 L89.2,119.2 M575.0,119.2 L566.0,119.2"/><g fill="#000" stroke="none" font-family="Arial" font-size="12" text-anchor="end"><text transform="translate(71.9,123.1)"><tspan font-family="Arial">0.3</tspan></text></g></g><g fill="none" stroke="currentColor" stroke-linecap="butt" stroke-linejoin="miter" stroke-width=".5" color="gray"><path stroke="gray" stroke-dasharray="2 4" d="M80.2,68.6 L575.0,68.6" class="gridline"/></g><g fill="none" stroke="currentColor" stroke-linecap="butt" stroke-linejoin="miter" stroke-width="1" color="#000"><path stroke="#000" d="M80.2,68.6 L89.2,68.6 M575.0,68.6 L566.0,68.6"/><g fill="#000" stroke="none" font-family="Arial" font-size="12" text-anchor="end"><text transform="translate(71.9,72.5)"><tspan font-family="Arial">0.35</tspan></text></g></g><g fill="none" stroke="currentColor" stroke-linecap="butt" stroke-linejoin="miter" stroke-width=".5" color="gray"><path stroke="gray" stroke-dasharray="2 4" d="M80.2,18.1 L575.0,18.1" class="gridline"/></g><g fill="none" stroke="currentColor" stroke-linecap="butt" stroke-linejoin="miter" stroke-width="1" color="#000"><path stroke="#000" d="M80.2,18.1 L89.2,18.1 M575.0,18.1 L566.0,18.1"/><g fill="#000" stroke="none" font-family="Arial" font-size="12" text-anchor="end"><text transform="translate(71.9,22.0)"><tspan font-family="Arial">0.4</tspan></text></g></g><g fill="none" stroke="currentColor" stroke-linecap="butt" stroke-linejoin="miter" stroke-width=".5" color="gray"><path stroke="gray" stroke-dasharray="2 4" d="M80.2,422.4 L80.2,18.1" class="gridline"/></g><g fill="none" stroke="currentColor" stroke-linecap="butt" stroke-linejoin="miter" stroke-width="1" color="#000"><path stroke="#000" d="M80.2,422.4 L80.2,413.4 M80.2,18.1 L80.2,27.1"/><g fill="#000" stroke="none" font-family="Arial" font-size="12" text-anchor="middle"><text transform="translate(80.2,444.3)"><tspan font-family="Arial">0</tspan></text></g></g><g fill="none" stroke="currentColor" stroke-linecap="butt" stroke-linejoin="miter" stroke-width=".5" color="gray"><path stroke="gray" stroke-dasharray="2 4" d="M179.2,422.4 L179.2,18.1" class="gridline"/></g><g fill="none" stroke="currentColor" stroke-linecap="butt" stroke-linejoin="miter" stroke-width="1" color="#000"><path stroke="#000" d="M179.2,422.4 L179.2,413.4 M179.2,18.1 L179.2,27.1"/><g fill="#000" stroke="none" font-family="Arial" font-size="12" text-anchor="middle"><text transform="translate(179.2,444.3)"><tspan font-family="Arial">5000</tspan></text></g></g><g fill="none" stroke="currentColor" stroke-linecap="butt" stroke-linejoin="miter" stroke-width=".5" color="gray"><path stroke="gray" stroke-dasharray="2 4" d="M278.1,422.4 L278.1,18.1" class="gridline"/></g><g fill="none" stroke="currentColor" stroke-linecap="butt" stroke-linejoin="miter" stroke-width="1" color="#000"><path stroke="#000" d="M278.1,422.4 L278.1,413.4 M278.1,18.1 L278.1,27.1"/><g fill="#000" stroke="none" font-family="Arial" font-size="12" text-anchor="middle"><text transform="translate(278.1,444.3)"><tspan font-family="Arial">10000</tspan></text></g></g><g fill="none" stroke="currentColor" stroke-linecap="butt" stroke-linejoin="miter" stroke-width=".5" color="gray"><path stroke="gray" stroke-dasharray="2 4" d="M377.1,422.4 L377.1,45.1 M377.1,27.1 L377.1,18.1" class="gridline"/></g><g fill="none" stroke="currentColor" stroke-linecap="butt" stroke-linejoin="miter" stroke-width="1" color="#000"><path stroke="#000" d="M377.1,422.4 L377.1,413.4 M377.1,18.1 L377.1,27.1"/><g fill="#000" stroke="none" font-family="Arial" font-size="12" text-anchor="middle"><text transform="translate(377.1,444.3)"><tspan font-family="Arial">15000</tspan></text></g></g><g fill="none" stroke="currentColor" stroke-linecap="butt" stroke-linejoin="miter" stroke-width=".5" color="gray"><path stroke="gray" stroke-dasharray="2 4" d="M476.0,422.4 L476.0,45.1 M476.0,27.1 L476.0,18.1" class="gridline"/></g><g fill="none" stroke="currentColor" stroke-linecap="butt" stroke-linejoin="miter" stroke-width="1" color="#000"><path stroke="#000" d="M476.0,422.4 L476.0,413.4 M476.0,18.1 L476.0,27.1"/><g fill="#000" stroke="none" font-family="Arial" font-size="12" text-anchor="middle"><text transform="translate(476.0,444.3)"><tspan font-family="Arial">20000</tspan></text></g></g><g fill="none" stroke="currentColor" stroke-linecap="butt" stroke-linejoin="miter" stroke-width=".5" color="gray"><path stroke="gray" stroke-dasharray="2 4" d="M575.0,422.4 L575.0,18.1" class="gridline"/></g><g fill="none" stroke="currentColor" stroke-linecap="butt" stroke-linejoin="miter" stroke-width="1" color="#000"><path stroke="#000" d="M575.0,422.4 L575.0,413.4 M575.0,18.1 L575.0,27.1"/><g fill="#000" stroke="none" font-family="Arial" font-size="12" text-anchor="middle"><text transform="translate(575.0,444.3)"><tspan font-family="Arial">25000</tspan></text></g></g><g fill="none" stroke="currentColor" stroke-linecap="butt" stroke-linejoin="miter" stroke-width="1" color="#000"><path stroke="#000" d="M80.2,18.1 L80.2,422.4 L575.0,422.4 L575.0,18.1 L80.2,18.1 Z"/></g><g fill="none" stroke="currentColor" stroke-linecap="butt" stroke-linejoin="miter" stroke-width="1" color="#000"><g fill="#000" stroke="none" font-family="Arial" font-size="12" text-anchor="middle"><text transform="translate(19.0,220.3) rotate(270)"><tspan font-family="Arial">Secs (less is better)</tspan></text></g></g><g fill="none" stroke="currentColor" stroke-linecap="butt" stroke-linejoin="miter" stroke-width="1" color="#000"><g fill="#000" stroke="none" font-family="Arial" font-size="12" text-anchor="middle"><text transform="translate(327.6,471.3)"><tspan font-family="Arial">Items</tspan></text></g></g><g id="gnuplot_plot_1"><title>&apos;insertion_w.txt&apos; using 1:2</title><g fill="none" stroke="currentColor" stroke-linecap="butt" stroke-linejoin="miter" stroke-width="1" color="#000"><g fill="#000" stroke="none" font-family="Arial" font-size="12" text-anchor="end"><text transform="translate(507.9,40.0)">&apos;insertion_w.txt&apos; using 1:2</text></g></g><g fill="none" stroke="currentColor" stroke-linecap="butt" stroke-linejoin="miter" stroke-width="1" color="#000"><path stroke="#9400D3" d="M516.2,36.1 L558.4,36.1 M82.2,422.4 L87.2,422.3 L92.1,422.1 L97.1,421.9 L102.1,421.5 L107.1,421.1 L112.0,420.7 L117.0,420.2 L122.0,419.5 L127.0,418.8 L132.0,417.9 L136.9,417.1 L141.9,416.2 L146.9,415.3 L151.9,414.2 L156.8,413.1 L161.8,411.9 L166.8,410.7 L171.8,409.5 L176.8,408.1 L181.7,406.7 L186.7,405.3 L191.7,403.7 L196.7,402.1 L201.7,400.4 L206.6,398.5 L211.6,396.3 L216.6,394.0 L221.6,391.3 L226.5,388.5 L231.5,385.6 L236.5,382.8 L241.5,380.2 L246.5,377.9 L251.4,375.8 L256.4,373.8 L261.4,371.7 L266.4,369.5 L271.3,367.0 L276.3,364.4 L281.3,361.6 L286.3,358.8 L291.3,355.8 L296.2,352.8 L301.2,349.7 L306.2,346.4 L311.2,342.9 L316.1,339.0 L321.1,334.8 L326.1,330.4 L331.1,325.8 L336.1,321.3 L341.0,317.0 L346.0,313.0 L351.0,309.4 L356.0,306.0 L360.9,302.5 L365.9,298.7 L370.9,294.6 L375.9,290.0 L380.9,285.2 L385.8,280.3 L390.8,275.5 L395.8,271.0 L400.8,266.7 L405.7,262.5 L410.7,258.2 L415.7,253.5 L420.7,248.5 L425.7,243.3 L430.6,238.0 L435.6,232.8 L440.6,227.7 L445.6,222.5 L450.6,217.1 L455.5,211.4 L460.5,205.5 L465.5,199.7 L470.5,194.0 L475.4,188.1 L480.4,181.8 L485.4,175.0 L490.4,167.9 L495.4,161.1 L500.3,154.8 L505.3,148.8 L510.3,142.7 L515.3,136.3 L520.2,130.2 L525.2,124.4 L530.2,118.4 L535.2,111.5 L540.2,104.1 L545.1,97.0 L550.1,89.4 L555.1,80.4 L560.1,73.0 L565.0,71.2 L570.0,67.7 L575.0,64.8"/></g></g><g fill="none" stroke="currentColor" stroke-linecap="butt" stroke-linejoin="miter" stroke-width="1" color="#000"><path stroke="#000" d="M80.2,18.1 L80.2,422.4 L575.0,422.4 L575.0,18.1 L80.2,18.1 Z"/></g></g></svg>