<svg xmlns="http://www.w3.org/2000/svg" xmlns:xlink="http://www.w3.org/1999/xlink" width="600" height="480" viewBox="0 0 600 480"><title>Gnuplot</title><desc>Produced by GNUPLOT 5.4 patchlevel 0</desc><g id="gnuplot_canvas"><rect width="600" height="480" x="0" y="0" fill="#fff"/><defs><circle id="gpDot" r=".5" stroke="currentColor" stroke-width=".5"/><path id="gpPt0" stroke="currentColor" stroke-width=".222" d="M-1,0 h2 M0,-1 v2"/><path id="gpPt1" stroke="currentColor" stroke-width=".222" d="M-1,-1 L1,1 M1,-1 L-1,1"/><path id="gpPt2" stroke="currentColor" stroke-width=".222" d="M-1,0 L1,0 M0,-1 L0,1 M-1,-1 L1,1 M-1,1 L1,-1"/><rect id="gpPt3" width="2" height="2" x="-1" y="-1" stroke="currentColor" stroke-width=".222"/><rect id="gpPt4" width="2" height="2" x="-1" y="-1" fill="currentColor" stroke="currentColor" stroke-width=".222"/><circle id="gpPt5" cx="0" cy="0" r="1" stroke="currentColor" stroke-width=".222"/><use id="gpPt6" fill="currentColor" stroke="none" xlink:href="#gpPt5"/><path id="gpPt7" stroke="currentColor" stroke-width=".222" d="M0,-1.33 L-1.33,0.67 L1.33,0.67 z"/><use id="gpPt8" fill="currentColor" stroke="none" xlink:href="#gpPt7"/><use id="gpPt9" stroke="currentColor" transform="rotate(180)" xlink:href="#gpPt7"/><use id="gpPt10" fill="currentColor" stroke="none" xlink:href="#gpPt9"/><use id="gpPt11" stroke="currentColor" transform="rotate(45)" xlink:href="#gpPt3"/><use id="gpPt12" fill="currentColor" stroke="none" xlink:href="#gpPt11"/><path id="gpPt13" stroke="currentColor" stroke-width=".222" d="M0,1.330 L1.265,0.411 L0.782,-1.067 L-0.782,-1.076 L-1.265,0.411 z"/><use id="gpPt14" fill="currentColor" stroke="none" xlink:href="#gpPt13"/><filter id="textbox" width="1" height="1" x="0" y="0" filterUnits="objectBoundingBox"><feFlood flood-color="#FFF" flood-opacity="1" result="bgnd"/><feComposite in="SourceGraphic" in2="bgnd" operator="atop"/></filter><filter id="greybox" width="1" height="1" x="0" y="0" filterUnits="objectBoundingBox"><feFlood flood-color="#d3d3d3" flood-opacity="1" result="grey"/><feComposite in="SourceGraphic" in2="grey" operator="atop"/></filter></defs><g fill="none" stroke="currentColor" stroke-linecap="butt" stroke-linejoin="miter" stroke-width=".5" color="gray"><path stroke="gray" stroke-dasharray="2 4" d="M71.9,422.4 L575.0,422.4" class="gridline"/></g><g fill="none" stroke="currentColor" stroke-linecap="butt" stroke-linejoin="miter" stroke-width="1" color="#000"><path stroke="#000" d="M71.9,422.4 L80.9,422.4 M575.0,422.4 L566.0,422.4"/><g fill="#000" stroke="none" font-family="Arial" font-size="12" text-anchor="end"><text transform="translate(63.6,426.3)"><tspan font-family="Arial">0</tspan></text></g></g><g fill="none" stroke="currentColor" stroke-linecap="butt" stroke-linejoin="miter" stroke-width=".5" color="gray"><path stroke="gray" stroke-dasharray="2 4" d="M71.9,364.6 L575.0,364.6" class="gridline"/></g><g fill="none" stroke="currentColor" stroke-linecap="butt" stroke-linejoin="miter" stroke-width="1" color="#000"><path stroke="#000" d="M71.9,364.6 L80.9,364.6 M575.0,364.6 L566.0,364.6"/><g fill="#000" stroke="none" font-family="Arial" font-size="12" text-anchor="end"><text transform="translate(63.6,368.5)"><tspan font-family="Arial">0.1</tspan></text></g></g><g fill="none" stroke="currentColor" stroke-linecap="butt" stroke-linejoin="miter" stroke-width=".5" color="gray"><path stroke="gray" stroke-dasharray="2 4" d="M71.9,306.9 L575.0,306.9" class="gridline"/></g><g fill="none" stroke="currentColor" stroke-linecap="butt" stroke-linejoin="miter" stroke-width="1" color="#000"><path stroke="#000" d="M71.9,306.9 L80.9,306.9 M575.0,306.9 L566.0,306.9"/><g fill="#000" stroke="none" font-family="Arial" font-size="12" text-anchor="end"><text transform="translate(63.6,310.8)"><tspan font-family="Arial">0.2</tspan></text></g></g><g fill="none" stroke="currentColor" stroke-linecap="butt" stroke-linejoin="miter" stroke-width=".5" color="gray"><path stroke="gray" stroke-dasharray="2 4" d="M71.9,249.1 L575.0,249.1" class="gridline"/></g><g fill="none" stroke="currentColor" stroke-linecap="butt" stroke-linejoin="miter" stroke-width="1" color="#000"><path stroke="#000" d="M71.9,249.1 L80.9,249.1 M575.0,249.1 L566.0,249.1"/><g fill="#000" stroke="none" font-family="Arial" font-size="12" text-anchor="end"><text transform="translate(63.6,253.0)"><tspan font-family="Arial">0.3</tspan></text></g></g><g fill="none" stroke="currentColor" stroke-linecap="butt" stroke-linejoin="miter" stroke-width=".5" color="gray"><path stroke="gray" stroke-dasharray="2 4" d="M71.9,191.4 L575.0,191.4" class="gridline"/></g><g fill="none" stroke="currentColor" stroke-linecap="butt" stroke-linejoin="miter" stroke-width="1" color="#000"><path stroke="#000" d="M71.9,191.4 L80.9,191.4 M575.0,191.4 L566.0,191.4"/><g fill="#000" stroke="none" font-family="Arial" font-size="12" text-anchor="end"><text transform="translate(63.6,195.3)"><tspan font-family="Arial">0.4</tspan></text></g></g><g fill="none" stroke="currentColor" stroke-linecap="butt" stroke-linejoin="miter" stroke-width=".5" color="gray"><path stroke="gray" stroke-dasharray="2 4" d="M71.9,133.6 L575.0,133.6" class="gridline"/></g><g fill="none" stroke="currentColor" stroke-linecap="butt" stroke-linejoin="miter" stroke-width="1" color="#000"><path stroke="#000" d="M71.9,133.6 L80.9,133.6 M575.0,133.6 L566.0,133.6"/><g fill="#000" stroke="none" font-family="Arial" font-size="12" text-anchor="end"><text transform="translate(63.6,137.5)"><tspan font-family="Arial">0.5</tspan></text></g></g><g fill="none" stroke="currentColor" stroke-linecap="butt" stroke-linejoin="miter" stroke-width=".5" color="gray"><path stroke="gray" stroke-dasharray="2 4" d="M71.9,75.9 L317.0,75.9 M566.7,75.9 L575.0,75.9" class="gridline"/></g><g fill="none" stroke="currentColor" stroke-linecap="butt" stroke-linejoin="miter" stroke-width="1" color="#000"><path stroke="#000" d="M71.9,75.9 L80.9,75.9 M575.0,75.9 L566.0,75.9"/><g fill="#000" stroke="none" font-family="Arial" font-size="12" text-anchor="end"><text transform="translate(63.6,79.8)"><tspan font-family="Arial">0.6</tspan></text></g></g><g fill="none" stroke="currentColor" stroke-linecap="butt" stroke-linejoin="miter" stroke-width=".5" color="gray"><path stroke="gray" stroke-dasharray="2 4" d="M71.9,18.1 L575.0,18.1" class="gridline"/></g><g fill="none" stroke="currentColor" stroke-linecap="butt" stroke-linejoin="miter" stroke-width="1" color="#000"><path stroke="#000" d="M71.9,18.1 L80.9,18.1 M575.0,18.1 L566.0,18.1"/><g fill="#000" stroke="none" font-family="Arial" font-size="12" text-anchor="end"><text transform="translate(63.6,22.0)"><tspan font-family="Arial">0.7</tspan></text></g></g><g fill="none" stroke="currentColor" stroke-linecap="butt" stroke-linejoin="miter" stroke-width=".5" color="gray"><path stroke="gray" stroke-dasharray="2 4" d="M71.9,422.4 L71.9,18.1" class="gridline"/></g><g fill="none" stroke="currentColor" stroke-linecap="butt" stroke-linejoin="miter" stroke-width="1" color="#000"><path stroke="#000" d="M71.9,422.4 L71.9,413.4 M71.9,18.1 L71.9,27.1"/><g fill="#000" stroke="none" font-family="Arial" font-size="12" text-anchor="middle"><text transform="translate(71.9,444.3)"><tspan font-family="Arial">0</tspan></text></g></g><g fill="none" stroke="currentColor" stroke-linecap="butt" stroke-linejoin="miter" stroke-width=".5" color="gray"><path stroke="gray" stroke-dasharray="2 4" d="M172.5,422.4 L172.5,18.1" class="gridline"/></g><g fill="none" stroke="currentColor" stroke-linecap="butt" stroke-linejoin="miter" stroke-width="1" color="#000"><path stroke="#000" d="M172.5,422.4 L172.5,413.4 M172.5,18.1 L172.5,27.1"/><g fill="#000" stroke="none" font-family="Arial" font-size="12" text-anchor="middle"><text transform="translate(172.5,444.3)"><tspan font-family="Arial">5000</tspan></text></g></g><g fill="none" stroke="currentColor" stroke-linecap="butt" stroke-linejoin="miter" stroke-width=".5" color="gray"><path stroke="gray" stroke-dasharray="2 4" d="M273.1,422.4 L273.1,18.1" class="gridline"/></g><g fill="none" stroke="currentColor" stroke-linecap="butt" stroke-linejoin="miter" stroke-width="1" color="#000"><path stroke="#000" d="M273.1,422.4 L273.1,413.4 M273.1,18.1 L273.1,27.1"/><g fill="#000" stroke="none" font-family="Arial" font-size="12" text-anchor="middle"><text transform="translate(273.1,444.3)"><tspan font-family="Arial">10000</tspan></text></g></g><g fill="none" stroke="currentColor" stroke-linecap="butt" stroke-linejoin="miter" stroke-width=".5" color="gray"><path stroke="gray" stroke-dasharray="2 4" d="M373.8,422.4 L373.8,81.1 M373.8,27.1 L373.8,18.1" class="gridline"/></g><g fill="none" stroke="currentColor" stroke-linecap="butt" stroke-linejoin="miter" stroke-width="1" color="#000"><path stroke="#000" d="M373.8,422.4 L373.8,413.4 M373.8,18.1 L373.8,27.1"/><g fill="#000" stroke="none" font-family="Arial" font-size="12" text-anchor="middle"><text transform="translate(373.8,444.3)"><tspan font-family="Arial">15000</tspan></text></g></g><g fill="none" stroke="currentColor" stroke-linecap="butt" stroke-linejoin="miter" stroke-width=".5" color="gray"><path stroke="gray" stroke-dasharray="2 4" d="M474.4,422.4 L474.4,81.1 M474.4,27.1 L474.4,18.1" class="gridline"/></g><g fill="none" stroke="currentColor" stroke-linecap="butt" stroke-linejoin="miter" stroke-width="1" color="#000"><path stroke="#000" d="M474.4,422.4 L474.4,413.4 M474.4,18.1 L474.4,27.1"/><g fill="#000" stroke="none" font-family="Arial" font-size="12" text-anchor="middle"><text transform="translate(474.4,444.3)"><tspan font-family="Arial">20000</tspan></text></g></g><g fill="none" stroke="currentColor" stroke-linecap="butt" stroke-linejoin="miter" stroke-width=".5" color="gray"><path stroke="gray" stroke-dasharray="2 4" d="M575.0,422.4 L575.0,18.1" class="gridline"/></g><g fill="none" stroke="currentColor" stroke-linecap="butt" stroke-linejoin="miter" stroke-width="1" color="#000"><path stroke="#000" d="M575.0,422.4 L575.0,413.4 M575.0,18.1 L575.0,27.1"/><g fill="#000" stroke="none" font-family="Arial" font-size="12" text-anchor="middle"><text transform="translate(575.0,444.3)"><tspan font-family="Arial">25000</tspan></text></g></g><g fill="none" stroke="currentColor" stroke-linecap="butt" stroke-linejoin="miter" stroke-width="1" color="#000"><path stroke="#000" d="M71.9,18.1 L71.9,422.4 L575.0,422.4 L575.0,18.1 L71.9,18.1 Z"/></g><g fill="none" stroke="currentColor" stroke-linecap="butt" stroke-linejoin="miter" stroke-width="1" color="#000"><g fill="#000" stroke="none" font-family="Arial" font-size="12" text-anchor="middle"><text transform="translate(19.0,220.3) rotate(270)"><tspan font-family="Arial">Secs (less is better)</tspan></text></g></g><g fill="none" stroke="currentColor" stroke-linecap="butt" stroke-linejoin="miter" stroke-width="1" color="#000"><g fill="#000" stroke="none" font-family="Arial" font-size="12" text-anchor="middle"><text transform="translate(323.4,471.3)"><tspan font-family="Arial">Items</tspan></text></g></g><g id="gnuplot_plot_1"><title>&apos;quick_b.txt&apos; using 1:2</title><g fill="none" stroke="currentColor" stroke-linecap="butt" stroke-linejoin="miter" stroke-width="1" color="#000"><g fill="#000" stroke="none" font-family="Arial" font-size="12" text-anchor="end"><text transform="translate(507.9,40.0)">&apos;quick_b.txt&apos; using 1:2</text></g></g><g fill="none" stroke="currentColor" stroke-linecap="butt" stroke-linejoin="miter" stroke-width="1" color="#000"><path stroke="#9400D3" d="M516.2,36.1 L558.4,36.1 M73.9,422.4 L79.0,422.4 L84.0,422.4 L89.1,422.4 L94.2,422.3 L99.2,422.3 L104.3,422.3 L109.3,422.2 L114.4,422.2 L119.5,422.2 L124.5,422.2 L129.6,422.2 L134.7,422.2 L139.7,422.2 L144.8,422.2 L149.8,422.2 L154.9,422.2 L160.0,422.2 L165.0,422.2 L170.1,422.2 L175.1,422.1 L180.2,422.1 L185.3,422.1 L190.3,422.1 L195.4,422.1 L200.4,422.1 L205.5,422.1 L210.6,422.1 L215.6,422.0 L220.7,422.0 L225.8,422.0 L230.8,422.0 L235.9,422.0 L240.9,422.0 L246.0,422.0 L251.1,422.0 L256.1,422.0 L261.2,422.0 L266.2,421.9 L271.3,421.9 L276.4,421.9 L281.4,421.9 L286.5,421.9 L291.6,421.9 L296.6,421.9 L301.7,421.9 L306.7,421.9 L311.8,421.8 L316.9,421.8 L321.9,421.8 L327.0,421.8 L332.0,421.8 L337.1,421.8 L342.2,421.7 L347.2,421.7 L352.3,421.7 L357.4,421.7 L362.4,421.7 L367.5,421.7 L372.5,421.7 L377.6,421.7 L382.7,421.6 L387.7,421.6 L392.8,421.6 L397.8,421.6 L402.9,421.6 L408.0,421.6 L413.0,421.6 L418.1,421.6 L423.2,421.5 L428.2,421.5 L433.3,421.5 L438.3,421.5 L443.4,421.5 L448.5,421.5 L453.5,421.4 L458.6,421.4 L463.6,421.4 L468.7,421.4 L473.8,421.4 L478.8,421.4 L483.9,421.3 L489.0,421.3 L494.0,421.2 L499.1,421.2 L504.1,421.2 L509.2,421.2 L514.3,421.2 L519.3,421.2 L524.4,421.2 L529.4,421.2 L534.5,421.2 L539.6,421.2 L544.6,421.2 L549.7,421.2 L554.8,421.2 L559.8,421.2 L564.9,421.2 L569.9,421.2 L575.0,421.1"/></g></g><g id="gnuplot_plot_2"><title>&apos;quick_m.txt&apos; using 1:2</title><g fill="none" stroke="currentColor" stroke-linecap="butt" stroke-linejoin="miter" stroke-width="1" color="#000"><g fill="#000" stroke="none" font-family="Arial" font-size="12" text-anchor="end"><text transform="translate(507.9,58.0)">&apos;quick_m.txt&apos; using 1:2</text></g></g><g fill="none" stroke="currentColor" stroke-linecap="butt" stroke-linejoin="miter" stroke-width="1" color="#000"><path stroke="#009E73" d="M516.2,54.1 L558.4,54.1 M73.9,422.4 L79.0,422.4 L84.0,422.4 L89.1,422.4 L94.2,422.3 L99.2,422.3 L104.3,422.3 L109.3,422.3 L114.4,422.3 L119.5,422.3 L124.5,422.3 L129.6,422.3 L134.7,422.2 L139.7,422.2 L144.8,422.2 L149.8,422.2 L154.9,422.2 L160.0,422.2 L165.0,422.2 L170.1,422.1 L175.1,422.1 L180.2,422.1 L185.3,422.1 L190.3,422.1 L195.4,422.1 L200.4,422.1 L205.5,422.1 L210.6,422.0 L215.6,422.0 L220.7,422.0 L225.8,422.0 L230.8,422.0 L235.9,422.0 L240.9,422.0 L246.0,421.9 L251.1,421.9 L256.1,421.9 L261.2,421.9 L266.2,421.9 L271.3,421.9 L276.4,421.9 L281.4,421.9 L286.5,421.8 L291.6,421.8 L296.6,421.8 L301.7,421.8 L306.7,421.8 L311.8,421.8 L316.9,421.8 L321.9,421.8 L327.0,421.8 L332.0,421.7 L337.1,421.7 L342.2,421.7 L347.2,421.7 L352.3,421.7 L357.4,421.7 L362.4,421.7 L367.5,421.6 L372.5,421.6 L377.6,421.6 L382.7,421.6 L387.7,421.6 L392.8,421.6 L397.8,421.5 L402.9,421.5 L408.0,421.5 L413.0,421.5 L418.1,421.4 L423.2,421.4 L428.2,421.4 L433.3,421.3 L438.3,421.3 L443.4,421.3 L448.5,421.2 L453.5,421.2 L458.6,421.2 L463.6,421.2 L468.7,421.2 L473.8,421.1 L478.8,421.1 L483.9,421.1 L489.0,421.1 L494.0,421.1 L499.1,421.1 L504.1,421.0 L509.2,421.0 L514.3,421.0 L519.3,421.0 L524.4,421.1 L529.4,421.1 L534.5,421.1 L539.6,421.2 L544.6,421.2 L549.7,421.2 L554.8,421.2 L559.8,421.1 L564.9,421.1 L569.9,421.1 L575.0,421.1"/></g></g><g id="gnuplot_plot_3"><title>&apos;quick_w.txt&apos; using 1:2</title><g fill="none" stroke="currentColor" stroke-linecap="butt" stroke-linejoin="miter" stroke-width="1" color="#000"><g fill="#000" stroke="none" font-family="Arial" font-size="12" text-anchor="end"><text transform="translate(507.9,76.0)">&apos;quick_w.txt&apos; using 1:2</text></g></g><g fill="none" stroke="currentColor" stroke-linecap="butt" stroke-linejoin="miter" stroke-width="1" color="#000"><path stroke="#56B4E9" d="M516.2,72.1 L558.4,72.1 M73.9,422.4 L79.0,422.3 L84.0,422.1 L89.1,421.8 L94.2,421.5 L99.2,421.1 L104.3,420.8 L109.3,420.3 L114.4,419.7 L119.5,419.1 L124.5,418.4 L129.6,417.7 L134.7,416.9 L139.7,416.0 L144.8,415.0 L149.8,414.0 L154.9,412.8 L160.0,411.5 L165.0,410.2 L170.1,408.9 L175.1,407.5 L180.2,406.1 L185.3,404.6 L190.3,403.0 L195.4,401.4 L200.4,399.6 L205.5,397.7 L210.6,395.7 L215.6,393.5 L220.7,391.2 L225.8,388.7 L230.8,386.1 L235.9,383.4 L240.9,380.7 L246.0,378.0 L251.1,375.6 L256.1,373.3 L261.2,371.2 L266.2,369.0 L271.3,366.7 L276.4,364.3 L281.4,361.5 L286.5,358.5 L291.6,355.1 L296.6,351.6 L301.7,347.9 L306.7,344.3 L311.8,340.7 L316.9,337.3 L321.9,334.0 L327.0,330.7 L332.0,327.2 L337.1,323.5 L342.2,319.6 L347.2,315.6 L352.3,311.7 L357.4,307.7 L362.4,303.8 L367.5,299.7 L372.5,295.5 L377.6,291.1 L382.7,286.6 L387.7,281.9 L392.8,277.1 L397.8,272.2 L402.9,267.1 L408.0,262.0 L413.0,257.0 L418.1,251.9 L423.2,247.0 L428.2,242.0 L433.3,237.0 L438.3,231.9 L443.4,226.8 L448.5,221.6 L453.5,216.3 L458.6,211.2 L463.6,206.0 L468.7,200.7 L473.8,195.3 L478.8,189.7 L483.9,184.0 L489.0,178.1 L494.0,172.0 L499.1,165.7 L504.1,159.4 L509.2,153.1 L514.3,146.8 L519.3,140.5 L524.4,134.3 L529.4,128.3 L534.5,122.3 L539.6,116.0 L544.6,109.0 L549.7,101.4 L554.8,93.5 L559.8,85.5 L564.9,77.2 L569.9,77.1 L575.0,80.7"/></g></g><g fill="none" stroke="currentColor" stroke-linecap="butt" stroke-linejoin="miter" stroke-width="1" color="#000"><path stroke="#000" d="M71.9,18.1 L71.9,422.4 L575.0,422.4 L575.0,18.1 L71.9,18.1 Z"/></g></g></svg>